<svg width="600" height="450" viewBox="0 0 600 450" fill="none" xmlns="http://www.w3.org/2000/svg">
<path fill-rule="evenodd" clip-rule="evenodd" d="M384.781 128.475C384.786 128.667 384.634 128.827 384.441 128.831L177.16 133.556C164.767 133.839 152.228 134.156 140.494 137.942C128.765 141.727 117.778 149.532 113.113 160.862C107.38 174.785 112.407 191.397 122.17 202.973C131.935 214.551 145.681 221.984 159.443 228.491C221.995 258.068 291.139 273.599 360.331 273.614C376.706 273.617 393.106 272.767 409.507 271.916C410.428 271.869 411.349 271.821 412.269 271.774C412.461 271.763 412.624 271.911 412.635 272.104C412.645 272.296 412.497 272.459 412.305 272.469C411.382 272.517 410.46 272.565 409.537 272.613C393.14 273.463 376.724 274.314 360.33 274.311C291.036 274.296 221.79 258.742 159.145 229.121C145.377 222.611 131.508 215.126 121.638 203.423C111.767 191.719 106.606 174.835 112.468 160.597C117.237 149.016 128.431 141.103 140.281 137.278C152.127 133.456 164.768 133.142 177.145 132.859L384.425 128.134C384.617 128.13 384.777 128.282 384.781 128.475Z" stroke="#141E12" stroke-width="0.75"/>
<path fill-rule="evenodd" clip-rule="evenodd" d="M329.488 431.772V52.377H330.881V431.772H329.488Z" fill="#141E12"/>
<path opacity="0.15" d="M329.486 431.773C224.888 431.773 139.789 346.673 139.789 242.075C139.789 137.477 224.888 52.3777 329.486 52.3777" fill="#141E12"/>
<path opacity="0.15" d="M329.485 390.647C247.562 390.647 180.912 323.997 180.912 242.074C180.912 160.151 247.562 93.501 329.485 93.501" fill="#141E12"/>
<path opacity="0.25" d="M329.487 349.523C270.238 349.523 222.037 301.322 222.037 242.073C222.037 182.825 270.238 134.624 329.487 134.624" fill="#141E12"/>
<path opacity="0.5" d="M329.486 308.4C292.856 308.4 263.161 278.705 263.161 242.075C263.161 205.445 292.856 175.75 329.486 175.75" fill="#141E12"/>
<path d="M329.486 276.143C310.67 276.143 295.417 260.89 295.417 242.075C295.417 223.259 310.67 208.006 329.486 208.006" fill="#141E12"/>
<path d="M422.75 232.972L390.681 302.675L385.47 314.01H307.086L301.875 302.675L269.807 232.972L280.327 178.192L324.294 162.21H368.262L412.229 178.192L422.75 232.972Z" stroke="#141E12" stroke-width="0.75"/>
<path d="M367.963 129.661V170.947C367.963 172.925 366.995 174.764 365.42 175.963C355.966 183.111 335.442 182.707 327.479 175.921C325.862 174.548 324.594 172.8 324.594 170.675V129.661H367.963Z" fill="#99D52A"/>
<path d="M358.301 164.986C349.252 172.03 341.272 171.786 334.255 164.986V136.509H358.301V164.986Z" fill="#141E12"/>
<path opacity="0.42" d="M367.963 129.661V147.246C353.098 157.263 338.702 159.764 324.594 147.385V129.661H367.963Z" fill="#5D770D"/>
<path fill-rule="evenodd" clip-rule="evenodd" d="M336.018 139.205H356.539V163.005L356.318 163.176C352.61 166.063 349.057 167.506 345.659 167.48C342.251 167.455 339.096 165.951 336.191 163.135L336.018 162.967V139.205ZM337.159 140.347V162.482C339.857 165.037 342.687 166.316 345.668 166.339C348.661 166.362 351.897 165.118 355.397 162.445V140.347H337.159Z" stroke="#141E12" stroke-width="0.75"/>
<path d="M346.297 147.195H340.552C323.849 147.195 310.308 133.655 310.308 116.951V81.2138C310.308 64.5099 323.849 62.9268 340.552 62.9268H346.297C363.001 62.9268 376.542 64.5099 376.542 81.2138V116.951C376.542 133.655 363.001 147.195 346.297 147.195Z" fill="#141E12"/>
<path fill-rule="evenodd" clip-rule="evenodd" d="M87.2131 307.858C68.9695 303.239 48.1839 304.588 33.5182 316.245C26.198 322.063 21.1711 330.89 19.4661 340.07C17.7613 349.249 19.3823 358.747 25.3073 365.935C25.4296 366.084 25.4085 366.304 25.26 366.426C25.1116 366.548 24.892 366.527 24.7696 366.379C18.6858 358.996 17.0476 349.276 18.7812 339.943C20.5145 330.61 25.6234 321.63 33.0847 315.7C47.9815 303.859 69.0187 302.533 87.3841 307.183C103.498 311.263 118.195 319.363 132.748 327.383C134.774 328.5 136.798 329.615 138.823 330.718C206.517 367.591 255.59 392.379 331.664 404.425C331.854 404.455 331.983 404.633 331.953 404.824C331.923 405.013 331.745 405.143 331.555 405.113C255.358 393.048 206.197 368.209 138.489 331.33C136.46 330.225 134.435 329.108 132.407 327.991C117.846 319.968 103.233 311.915 87.2131 307.858Z" stroke="#141E12" stroke-width="0.75"/>
<path opacity="0.15" d="M588.209 312.338H386.483V323.414H588.209V312.338Z" fill="#141E12"/>
<path opacity="0.15" d="M588.209 334.702H386.483V345.778H588.209V334.702Z" fill="#141E12"/>
<path opacity="0.15" d="M588.209 357.068H386.483V368.144H588.209V357.068Z" fill="#141E12"/>
<path d="M93.663 394.907C126.458 394.907 153.045 368.321 153.045 335.525C153.045 302.729 126.458 276.143 93.663 276.143C60.867 276.143 34.2809 302.729 34.2809 335.525C34.2809 368.321 60.867 394.907 93.663 394.907Z" stroke="#141E12" stroke-width="0.75"/>
<path d="M240.053 23.3657H14.9847V43.9063H240.053V23.3657Z" stroke="#141E12" stroke-width="0.75"/>
<path opacity="0.15" d="M240.053 52.4077H14.9847V197.683H240.053V52.4077Z" fill="#141E12"/>
<path opacity="0.15" d="M81.0893 62.6785H26.5344V185.494H81.0893V62.6785Z" fill="#141E12"/>
<path opacity="0.15" d="M147.323 62.6785H92.7683V69.6452H147.323V62.6785Z" fill="#141E12"/>
<path opacity="0.15" d="M212.465 62.6785H157.91V69.6452H212.465V62.6785Z" fill="#141E12"/>
<path opacity="0.15" d="M147.323 86.751H92.7683V120.343H147.323V86.751Z" fill="#141E12"/>
<path opacity="0.15" d="M147.323 129.189H92.7683V162.781H147.323V129.189Z" fill="#141E12"/>
<path opacity="0.15" d="M81.0893 192.05H26.5344V240.842H81.0893V192.05Z" fill="#141E12"/>
<path opacity="0.15" d="M212.465 86.751H157.91V120.343H212.465V86.751Z" fill="#141E12"/>
<path opacity="0.15" d="M212.465 129.189H157.91V162.781H212.465V129.189Z" fill="#141E12"/>
<path fill-rule="evenodd" clip-rule="evenodd" d="M381.669 135.728C381.669 135.536 381.825 135.38 382.017 135.38H458.211C458.403 135.38 458.559 135.536 458.559 135.728C458.559 135.921 458.403 136.077 458.211 136.077H382.017C381.825 136.077 381.669 135.921 381.669 135.728Z" stroke="#141E12" stroke-width="0.75"/>
<path fill-rule="evenodd" clip-rule="evenodd" d="M403.126 130.264C403.126 130.072 403.282 129.916 403.474 129.916H458.21C458.403 129.916 458.559 130.072 458.559 130.264C458.559 130.457 458.403 130.613 458.21 130.613H403.474C403.282 130.613 403.126 130.457 403.126 130.264Z" stroke="#141E12" stroke-width="0.75"/>
<path fill-rule="evenodd" clip-rule="evenodd" d="M403.126 124.8C403.126 124.607 403.282 124.452 403.474 124.452H472.563C472.756 124.452 472.912 124.607 472.912 124.8C472.912 124.993 472.756 125.148 472.563 125.148H403.474C403.282 125.148 403.126 124.993 403.126 124.8Z" stroke="#141E12" stroke-width="0.75"/>
<path fill-rule="evenodd" clip-rule="evenodd" d="M403.126 119.336C403.126 119.143 403.282 118.987 403.474 118.987H458.21C458.403 118.987 458.559 119.143 458.559 119.336C458.559 119.528 458.403 119.684 458.21 119.684H403.474C403.282 119.684 403.126 119.528 403.126 119.336Z" stroke="#141E12" stroke-width="0.75"/>
<path d="M93.663 335.525H153.045C153.045 368.101 126.239 394.907 93.663 394.907C61.0868 394.907 34.2809 368.101 34.2809 335.525C34.2809 302.949 61.0868 276.143 93.663 276.143C106.01 276.143 118.055 279.994 128.112 287.157L93.663 335.525Z" fill="#141E12"/>
<path d="M87.9413 323.396H147.323C147.323 355.971 120.518 382.777 87.9413 382.777C55.3655 382.777 28.5596 355.971 28.5596 323.396C28.5596 296.3 47.105 272.476 73.3727 265.828L87.9413 323.396Z" fill="#99D52A"/>
<path fill-rule="evenodd" clip-rule="evenodd" d="M105.198 410.036H28.5596V406.552H105.198V410.036Z" fill="#141E12"/>
<path fill-rule="evenodd" clip-rule="evenodd" d="M105.198 423.422H28.5596V419.939H105.198V423.422Z" fill="#141E12"/>
<path fill-rule="evenodd" clip-rule="evenodd" d="M386.656 398.649C386.656 382.871 373.866 370.081 358.087 370.081V368.687C374.635 368.687 388.05 382.102 388.05 398.649C388.05 415.197 374.635 428.611 358.087 428.611C341.54 428.611 328.126 415.197 328.126 398.649H329.519C329.519 414.427 342.31 427.218 358.087 427.218C373.866 427.218 386.656 414.427 386.656 398.649Z" stroke="#141E12" stroke-width="0.75"/>
<path fill-rule="evenodd" clip-rule="evenodd" d="M380.203 391.978C377.205 384.761 371.333 379.037 364.016 376.237L364.513 374.936C372.188 377.873 378.346 383.873 381.49 391.443L380.203 391.978Z" stroke="#141E12" stroke-width="0.75"/>
<path fill-rule="evenodd" clip-rule="evenodd" d="M562.538 209.541C546.76 209.541 533.969 222.331 533.969 238.11C533.969 253.888 546.76 266.678 562.538 266.678C578.316 266.678 591.106 253.888 591.106 238.11C591.106 222.331 578.316 209.541 562.538 209.541ZM532.576 238.11C532.576 221.562 545.99 208.147 562.538 208.147C579.085 208.147 592.5 221.562 592.5 238.11C592.5 254.657 579.085 268.072 562.538 268.072C545.99 268.072 532.576 254.657 532.576 238.11Z" fill="#141E12"/>
<path fill-rule="evenodd" clip-rule="evenodd" d="M563.235 238.111V395.863C563.235 397.786 561.675 399.346 559.751 399.346H358.088V397.953H559.751C560.906 397.953 561.842 397.017 561.842 395.863V238.111H563.235Z" fill="#141E12"/>
<path d="M422.469 237.517C422.469 237.517 438.16 318.359 460.986 324.065C483.812 329.772 448.72 230.669 448.72 230.669L441.871 204.419H422.469V237.517Z" fill="#99D52A"/>
<path d="M416.763 181.592C416.763 181.592 454.426 188.44 457.85 215.831C461.274 243.223 478.715 324.248 478.715 324.248L460.986 324.065L447.761 231.029C448.333 221.967 443.003 213.569 434.56 210.227L422.469 205.44L416.763 181.592Z" stroke="#141E12" stroke-width="0.75"/>
<path d="M423.343 251.644C426.654 251.281 428.857 246.605 428.264 241.199L421.942 183.556C421.444 179.015 419.097 175.28 416.276 174.536L413.161 173.716C409.03 172.628 405.884 178.269 406.947 184.858L416.383 243.322C417.198 248.367 420.224 251.986 423.343 251.644Z" stroke="#141E12" stroke-width="0.75"/>
<path d="M475.554 331.64C488.587 331.64 499.151 321.075 499.151 308.042C499.151 295.01 488.587 284.446 475.554 284.446C462.522 284.446 451.958 295.01 451.958 308.042C451.958 321.075 462.522 331.64 475.554 331.64Z" fill="#99D52A"/>
<path d="M495.747 208.27L516.071 212.404C516.071 212.404 495.564 317.87 488.398 321.866C479.627 326.755 466.599 327.149 460.544 310.801C455.432 296.996 492.185 231.022 495.747 208.27Z" stroke="#141E12" stroke-width="0.75"/>
<path d="M376.385 65.6284V81.387L310.465 77.1443V65.6284C310.465 64.5974 310.59 63.5941 310.82 62.6327C312.255 56.6761 317.878 52.2312 324.601 52.2312H362.249C368.464 52.2312 373.744 56.0351 375.632 61.3159C376.12 62.6675 376.385 64.1165 376.385 65.6284Z" fill="#141E12"/>
<path d="M275.36 237.245C275.36 237.245 286.441 348.186 263.615 353.893C240.788 359.6 242.712 230.668 242.712 230.668L249.56 204.418L273.329 203.123L275.36 237.245Z" fill="#99D52A"/>
<path d="M274.669 181.592C274.669 181.592 237.005 188.44 233.581 215.831C230.158 243.223 245.885 354.077 245.885 354.077L263.615 353.893L243.671 231.029C243.099 221.967 248.428 213.569 256.87 210.227L268.962 205.44L274.669 181.592Z" stroke="#141E12" stroke-width="0.75"/>
<path d="M274.111 252.073C270.783 252.219 267.892 247.933 267.653 242.501L265.106 184.568C264.905 180.004 266.654 175.954 269.33 174.79C269.33 174.79 270.339 173.958 275.36 174.586C280.379 175.215 281.611 177.208 281.565 183.881L279.719 242.786C279.683 247.897 277.245 251.935 274.111 252.073Z" fill="#99D52A"/>
<path d="M263.071 364.168C276.103 364.168 286.668 353.603 286.668 340.571C286.668 327.539 276.103 316.974 263.071 316.974C250.039 316.974 239.474 327.539 239.474 340.571C239.474 353.603 250.039 364.168 263.071 364.168Z" fill="#99D52A"/>
<path d="M391.93 204.418L384.412 263.766C359.704 265.834 334.282 266.144 308.144 263.766L300.625 204.418C315.92 190.95 380.456 191.004 391.93 204.418Z" fill="#141E12"/>
<path d="M384.412 208.612L378.131 258.186C357.494 259.913 336.258 260.172 314.426 258.186L308.144 208.612C320.921 197.362 374.827 197.408 384.412 208.612Z" stroke="#141E12" stroke-width="0.75"/>
<path d="M374.201 214.308L369.602 250.608C354.49 251.873 338.941 252.063 322.954 250.608L318.355 214.308C327.709 206.071 367.183 206.104 374.201 214.308Z" fill="#99D52A"/>
<path d="M357.595 125.37C358.737 128.363 354.765 138.283 343.796 137.734C336.792 137.384 330.874 129.356 332.036 125.37C340.813 127.344 349.355 127.52 357.595 125.37Z" stroke="#141E12" stroke-width="0.75"/>
<path d="M378.352 48.5444C375.847 47.9177 373.307 49.4407 372.681 51.9459L367.533 72.5249C366.907 75.03 368.429 77.5688 370.935 78.1958L376.019 79.467C378.524 80.094 381.062 78.5708 381.689 76.0658L386.837 55.487C387.464 52.9817 385.94 50.4428 383.435 49.8161L378.352 48.5444ZM378.352 48.5444L378.213 49.0981M378.075 49.6517C376.181 49.178 374.262 50.3291 373.788 52.2229L368.64 72.8018C368.167 74.6956 369.318 76.6148 371.212 77.0888L376.295 78.36C378.189 78.834 380.108 77.6828 380.582 75.789L385.73 55.21C386.204 53.3162 385.052 51.397 383.159 50.9233L378.075 49.6517ZM378.075 49.6517L378.213 49.1001" stroke="#141E12" stroke-width="0.75"/>
<path fill-rule="evenodd" clip-rule="evenodd" d="M386.986 29.6778L376.884 69.7342L375.777 69.4551L385.879 29.3987L386.986 29.6778Z" stroke="#141E12" stroke-width="0.75"/>
<path opacity="0.3" d="M386.432 40.3288C380.483 40.3288 375.643 35.4887 375.643 29.5391C375.643 23.59 380.483 18.75 386.432 18.75C392.382 18.75 397.222 23.59 397.222 29.5391C397.222 35.4887 392.382 40.3288 386.432 40.3288Z" fill="#99D52A"/>
<path opacity="0.3" d="M386.432 36.8446C382.403 36.8446 379.126 33.5673 379.126 29.5383C379.126 25.5099 382.403 22.2327 386.432 22.2327C390.461 22.2327 393.739 25.5099 393.739 29.5383C393.739 33.5673 390.461 36.8446 386.432 36.8446Z" fill="#99D52A"/>
<path d="M386.432 33.3616C388.543 33.3616 390.255 31.6501 390.255 29.5388C390.255 27.4276 388.543 25.7161 386.432 25.7161C384.321 25.7161 382.609 27.4276 382.609 29.5388C382.609 31.6501 384.321 33.3616 386.432 33.3616Z" fill="#99D52A"/>
<path d="M310.181 273.568C311.453 273.568 312.485 272.536 312.485 271.262C312.485 269.99 311.453 268.957 310.181 268.957C308.907 268.957 307.875 269.99 307.875 271.262C307.875 272.536 308.907 273.568 310.181 273.568Z" stroke="#141E12" stroke-width="0.75"/>
<path d="M316.421 273.568C317.694 273.568 318.727 272.536 318.727 271.262C318.727 269.99 317.694 268.957 316.421 268.957C315.148 268.957 314.116 269.99 314.116 271.262C314.116 272.536 315.148 273.568 316.421 273.568Z" fill="#141E12"/>
<path d="M322.662 273.568C323.935 273.568 324.967 272.536 324.967 271.262C324.967 269.99 323.935 268.957 322.662 268.957C321.389 268.957 320.357 269.99 320.357 271.262C320.357 272.536 321.389 273.568 322.662 273.568Z" fill="#99D52A"/>
<path d="M332.341 125.708C340.966 127.718 349.371 127.851 357.501 125.713C357.517 125.82 357.52 125.965 357.504 126.151C357.278 128.904 354.736 130.35 351.777 130.863L351.841 131.233L351.777 130.863C349.339 131.286 346.219 131.326 343.168 131.035C340.116 130.744 337.167 130.124 335.067 129.247C333.491 128.589 332.264 127.551 332.299 126.065C332.302 125.918 332.318 125.8 332.341 125.708Z" fill="#F2F4F2" stroke="#141E12" stroke-width="0.75"/>
<path d="M292.68 398.21L310.18 386.315C310.18 386.315 283.276 334.863 273.804 331.321C262.21 326.986 252.517 331.813 250.332 343.255C248.147 354.698 273.796 383.923 292.68 398.21Z" stroke="#141E12" stroke-width="0.75"/>
<path d="M304.727 379.705C311.091 375.115 316.992 371.225 325.137 371.928C329.642 373.234 335.017 375.649 338.201 378.887C341.385 382.126 343.049 386.372 344.198 389.982C344.739 391.688 344.021 391.891 343.022 392.282C341.689 392.804 339.963 392.489 338.995 391.075C337.307 388.608 336.033 385.789 333.111 384.353C330.188 382.918 325.933 382.292 323.144 383.305C320.354 384.318 320.114 385.747 320.617 388.091C315.655 380.707 313.391 382.767 304.727 379.705Z" stroke="#141E12" stroke-width="0.75"/>
<path d="M318.632 411.07C318.632 411.07 305.761 409.377 297.549 404.395C287.219 398.128 293.5 388.076 293.5 388.076L318.632 411.07Z" stroke="#141E12" stroke-width="0.75"/>
<path fill-rule="evenodd" clip-rule="evenodd" d="M337.956 379.159C333.231 384.1 330.564 390.973 330.564 398.649H327.081C327.081 390.163 330.036 382.402 335.438 376.752C340.853 371.089 348.634 367.642 358.088 367.642V371.125C349.521 371.125 342.67 374.229 337.956 379.159Z" fill="#99D52A"/>
<path d="M517.265 216.434C514.355 220.143 501.616 221.583 493.021 212.405C484.425 203.228 473.528 183.122 482.404 176.82C486.08 174.209 488.896 192.236 490.897 186.83C495.03 175.661 493.407 146.903 502.976 146.903C506.25 146.903 501.741 156.389 504.547 160.136C507.744 164.404 507.241 168.159 509.401 174.33C512.93 184.413 525.691 190.106 524.836 194.195C522.998 202.982 517.265 216.434 517.265 216.434Z" stroke="#141E12" stroke-width="0.75"/>
<g opacity="0.25">
<path opacity="0.25" d="M376.385 85.4543L310.465 81.2115V69.6953C310.465 68.6642 310.465 66.5763 310.465 66.5763C332.919 56.6137 357.284 57.4027 376.15 65.3588C376.711 67.7147 376.415 68.5984 376.385 69.6953V85.4543Z" stroke="#141E12" stroke-width="0.75"/>
</g>
<path d="M387.977 321.866H304.579C301.886 321.866 299.703 319.683 299.703 316.99C299.703 314.297 301.886 312.113 304.579 312.113H387.977C390.67 312.113 392.853 314.297 392.853 316.99C392.853 319.683 390.67 321.866 387.977 321.866Z" fill="#99D52A"/>
<path opacity="0.25" d="M315.819 121.76C315.819 121.76 371.733 126.814 375.602 124.459C375.602 124.459 376.087 122.075 376.211 120.837L312.161 119.172L315.819 121.76Z" stroke="#141E12" stroke-width="0.75"/>
<path d="M372.816 121.76H313.78C313.78 121.76 302.74 121.256 300.702 116.071C297.277 107.356 293.852 98.6416 290.426 89.9273C288.762 85.6928 290.11 80.8245 293.79 78.1493C328.436 52.9633 369.486 57.5486 393.517 77.8328C396.833 80.6333 398.018 85.2248 396.431 89.2643C392.918 98.1998 389.406 107.135 385.894 116.071C383.856 121.256 372.816 121.76 372.816 121.76Z" stroke="#141E12" stroke-width="0.75"/>
<path d="M306.89 98.6796L306.89 98.6795L306.887 98.6741C306.348 97.7641 306.463 96.6889 307.179 95.6762C307.9 94.6573 309.221 93.7289 311.01 93.2126L311.01 93.2125C331.94 87.161 354.909 87.1602 375.839 93.2125L375.84 93.2126C377.629 93.7289 378.95 94.6575 379.67 95.6764C380.387 96.6893 380.501 97.7646 379.963 98.6741L379.96 98.6796C378.735 100.832 377.51 102.984 376.284 105.136C375.714 106.102 374.67 106.813 373.398 107.183C372.129 107.553 370.663 107.571 369.299 107.178C352.591 102.347 334.259 102.347 317.551 107.178C316.186 107.571 314.721 107.553 313.451 107.183C312.18 106.813 311.135 106.102 310.565 105.137L306.89 98.6796Z" fill="#F2F4F2" stroke="#141E12" stroke-width="0.75"/>
<path d="M332.587 98.8411C326.917 98.4061 321.048 99.6256 316.021 102.284C315.155 102.74 314.039 102.671 313.49 102.067C312.952 101.457 312.415 100.847 311.877 100.237C311.329 99.6353 311.752 98.6048 312.871 98.0138C319.215 94.6598 326.62 93.1208 333.775 93.6698C335.037 93.7658 335.835 94.5428 335.572 95.3123C335.322 96.0863 335.072 96.8603 334.822 97.6343C334.559 98.4061 333.563 98.9146 332.587 98.8411Z" stroke="#141E12" stroke-width="0.75"/>
<path d="M354.047 98.8411C359.717 98.4061 365.586 99.6256 370.613 102.284C371.479 102.74 372.595 102.671 373.144 102.067C373.681 101.457 374.219 100.847 374.757 100.237C375.305 99.6353 374.882 98.6048 373.763 98.0138C367.42 94.6598 360.013 93.1208 352.859 93.6698C351.598 93.7658 350.799 94.5428 351.061 95.3123C351.312 96.0863 351.562 96.8603 351.812 97.6343C352.075 98.4061 353.071 98.9146 354.047 98.8411Z" stroke="#141E12" stroke-width="0.75"/>
<path fill-rule="evenodd" clip-rule="evenodd" d="M321.823 244.436C321.823 244.243 321.979 244.087 322.172 244.087H370.384C370.576 244.087 370.732 244.243 370.732 244.436C370.732 244.628 370.576 244.784 370.384 244.784H322.172C321.979 244.784 321.823 244.628 321.823 244.436Z" stroke="#141E12" stroke-width="0.75"/>
<path fill-rule="evenodd" clip-rule="evenodd" d="M321.823 240.842C321.823 240.649 321.979 240.493 322.172 240.493H370.384C370.576 240.493 370.732 240.649 370.732 240.842C370.732 241.034 370.576 241.19 370.384 241.19H322.172C321.979 241.19 321.823 241.034 321.823 240.842Z" stroke="#141E12" stroke-width="0.75"/>
<path fill-rule="evenodd" clip-rule="evenodd" d="M321.823 237.245C321.823 237.052 321.979 236.896 322.172 236.896H370.384C370.576 236.896 370.732 237.052 370.732 237.245C370.732 237.437 370.576 237.593 370.384 237.593H322.172C321.979 237.593 321.823 237.437 321.823 237.245Z" stroke="#141E12" stroke-width="0.75"/>
<path opacity="0.15" d="M501.99 168.514C524.099 168.514 542.022 150.592 542.022 128.482C542.022 106.373 524.099 88.4504 501.99 88.4504C479.881 88.4504 461.958 106.373 461.958 128.482C461.958 150.592 479.881 168.514 501.99 168.514Z" fill="#99D52A"/>
<path opacity="0.15" d="M501.99 159.836C519.306 159.836 533.344 145.799 533.344 128.483C533.344 111.167 519.306 97.1288 501.99 97.1288C484.674 97.1288 470.636 111.167 470.636 128.483C470.636 145.799 484.674 159.836 501.99 159.836Z" fill="#99D52A"/>
<path opacity="0.25" d="M501.99 151.158C514.513 151.158 524.665 141.006 524.665 128.483C524.665 115.96 514.513 105.808 501.99 105.808C489.466 105.808 479.314 115.96 479.314 128.483C479.314 141.006 489.466 151.158 501.99 151.158Z" fill="#99D52A"/>
<path opacity="0.5" d="M501.99 142.48C509.72 142.48 515.987 136.213 515.987 128.483C515.987 120.753 509.72 114.486 501.99 114.486C494.26 114.486 487.994 120.753 487.994 128.483C487.994 136.213 494.26 142.48 501.99 142.48Z" fill="#99D52A"/>
<path d="M501.99 135.672C505.961 135.672 509.18 132.453 509.18 128.482C509.18 124.511 505.961 121.293 501.99 121.293C498.019 121.293 494.801 124.511 494.801 128.482C494.801 132.453 498.019 135.672 501.99 135.672Z" fill="#99D52A"/>
<path fill-rule="evenodd" clip-rule="evenodd" d="M7.5 23.3654C7.5 23.173 7.65593 23.0171 7.84838 23.0171H75.5527C75.7447 23.0171 75.9007 23.173 75.9007 23.3654C75.9007 23.5578 75.7447 23.7138 75.5527 23.7138H7.84838C7.65593 23.7138 7.5 23.5578 7.5 23.3654Z" stroke="#141E12" stroke-width="0.75"/>
<path fill-rule="evenodd" clip-rule="evenodd" d="M174.62 43.907C174.62 43.7146 174.775 43.5586 174.967 43.5586H242.672C242.864 43.5586 243.02 43.7146 243.02 43.907C243.02 44.0993 242.864 44.2553 242.672 44.2553H174.967C174.775 44.2553 174.62 44.0993 174.62 43.907Z" stroke="#141E12" stroke-width="0.75"/>
<path fill-rule="evenodd" clip-rule="evenodd" d="M19.8889 192.05C19.8889 191.858 20.0448 191.702 20.2372 191.702H87.9413C88.134 191.702 88.29 191.858 88.29 192.05C88.29 192.242 88.134 192.398 87.9413 192.398H20.2372C20.0448 192.398 19.8889 192.242 19.8889 192.05Z" stroke="#141E12" stroke-width="0.75"/>
<path d="M27.1325 36.5485C29.034 36.5485 30.5756 35.007 30.5756 33.1055C30.5756 31.2039 29.034 29.6624 27.1325 29.6624C25.2309 29.6624 23.6895 31.2039 23.6895 33.1055C23.6895 35.007 25.2309 36.5485 27.1325 36.5485Z" fill="#141E12"/>
<path d="M39.6909 36.5485C41.5926 36.5485 43.134 35.007 43.134 33.1055C43.134 31.2039 41.5926 29.6624 39.6909 29.6624C37.7894 29.6624 36.2479 31.2039 36.2479 33.1055C36.2479 35.007 37.7894 36.5485 39.6909 36.5485Z" fill="#99D52A"/>
<path opacity="0.15" d="M588.209 334.702H386.483V345.778H588.209V334.702Z" fill="#141E12"/>
<path opacity="0.15" d="M588.209 357.068H386.483V368.144H588.209V357.068Z" fill="#141E12"/>
<path fill-rule="evenodd" clip-rule="evenodd" d="M381.669 135.728C381.669 135.536 381.825 135.38 382.017 135.38H458.211C458.403 135.38 458.559 135.536 458.559 135.728C458.559 135.921 458.403 136.077 458.211 136.077H382.017C381.825 136.077 381.669 135.921 381.669 135.728Z" stroke="#141E12" stroke-width="0.75"/>
<path fill-rule="evenodd" clip-rule="evenodd" d="M403.126 130.264C403.126 130.072 403.282 129.916 403.474 129.916H458.21C458.403 129.916 458.559 130.072 458.559 130.264C458.559 130.457 458.403 130.613 458.21 130.613H403.474C403.282 130.613 403.126 130.457 403.126 130.264Z" stroke="#141E12" stroke-width="0.75"/>
<path fill-rule="evenodd" clip-rule="evenodd" d="M403.126 124.8C403.126 124.607 403.282 124.452 403.474 124.452H472.563C472.756 124.452 472.912 124.607 472.912 124.8C472.912 124.993 472.756 125.148 472.563 125.148H403.474C403.282 125.148 403.126 124.993 403.126 124.8Z" stroke="#141E12" stroke-width="0.75"/>
<path fill-rule="evenodd" clip-rule="evenodd" d="M403.126 119.336C403.126 119.143 403.282 118.987 403.474 118.987H458.21C458.403 118.987 458.559 119.143 458.559 119.336C458.559 119.528 458.403 119.684 458.21 119.684H403.474C403.282 119.684 403.126 119.528 403.126 119.336Z" stroke="#141E12" stroke-width="0.75"/>
<path d="M423.343 251.644C426.654 251.281 428.857 246.605 428.264 241.199L421.942 183.556C421.444 179.015 419.097 175.28 416.276 174.536L413.161 173.716C409.03 172.628 405.884 178.269 406.947 184.858L416.383 243.322C417.198 248.367 420.224 251.986 423.343 251.644Z" fill="#99D52A"/>
<path d="M384.412 208.612L378.131 258.186C357.494 259.913 336.258 260.172 314.426 258.186L308.144 208.612C320.921 197.362 374.827 197.408 384.412 208.612Z" stroke="#6B716A" stroke-width="0.75"/>
<path d="M374.201 214.308L369.602 250.608C354.49 251.873 338.941 252.063 322.954 250.608L318.355 214.308C327.709 206.071 367.183 206.104 374.201 214.308Z" fill="#99D52A"/>
<path d="M357.595 125.37C358.737 128.363 354.765 138.283 343.796 137.734C336.792 137.384 330.874 129.356 332.036 125.37C340.813 127.344 349.355 127.52 357.595 125.37Z" fill="#E6E9E6"/>
<path d="M310.181 273.568C311.453 273.568 312.485 272.536 312.485 271.262C312.485 269.99 311.453 268.957 310.181 268.957C308.907 268.957 307.875 269.99 307.875 271.262C307.875 272.536 308.907 273.568 310.181 273.568Z" fill="#99D52A"/>
<path d="M316.421 273.568C317.694 273.568 318.727 272.536 318.727 271.262C318.727 269.99 317.694 268.957 316.421 268.957C315.148 268.957 314.116 269.99 314.116 271.262C314.116 272.536 315.148 273.568 316.421 273.568Z" fill="#141E12"/>
<path d="M322.662 273.568C323.935 273.568 324.967 272.536 324.967 271.262C324.967 269.99 323.935 268.957 322.662 268.957C321.389 268.957 320.357 269.99 320.357 271.262C320.357 272.536 321.389 273.568 322.662 273.568Z" fill="#99D52A"/>
<path d="M332.341 125.708C340.966 127.718 349.371 127.851 357.501 125.713C357.517 125.82 357.52 125.965 357.504 126.151C357.278 128.904 354.736 130.35 351.777 130.863L351.841 131.233L351.777 130.863C349.339 131.286 346.219 131.326 343.168 131.035C340.116 130.744 337.167 130.124 335.067 129.247C333.491 128.589 332.264 127.551 332.299 126.065C332.302 125.918 332.318 125.8 332.341 125.708Z" fill="#F2F4F2" stroke="#141E12" stroke-width="0.75"/>
<path d="M318.632 411.07C318.632 411.07 305.761 409.377 297.549 404.395C287.219 398.128 293.5 388.076 293.5 388.076L318.632 411.07Z" stroke="#141E12" stroke-width="0.75"/>
<path opacity="0.25" d="M315.819 121.76C315.819 121.76 371.733 126.814 375.602 124.459C375.602 124.459 376.087 122.075 376.211 120.837L312.161 119.172L315.819 121.76Z" stroke="#141E12" stroke-width="0.75"/>
<path fill-rule="evenodd" clip-rule="evenodd" d="M321.823 244.436C321.823 244.243 321.979 244.087 322.172 244.087H370.384C370.576 244.087 370.732 244.243 370.732 244.436C370.732 244.628 370.576 244.784 370.384 244.784H322.172C321.979 244.784 321.823 244.628 321.823 244.436Z" stroke="#141E12" stroke-width="0.75"/>
<path fill-rule="evenodd" clip-rule="evenodd" d="M321.823 240.842C321.823 240.649 321.979 240.493 322.172 240.493H370.384C370.576 240.493 370.732 240.649 370.732 240.842C370.732 241.034 370.576 241.19 370.384 241.19H322.172C321.979 241.19 321.823 241.034 321.823 240.842Z" stroke="#141E12" stroke-width="0.75"/>
<path fill-rule="evenodd" clip-rule="evenodd" d="M321.823 237.245C321.823 237.052 321.979 236.896 322.172 236.896H370.384C370.576 236.896 370.732 237.052 370.732 237.245C370.732 237.437 370.576 237.593 370.384 237.593H322.172C321.979 237.593 321.823 237.437 321.823 237.245Z" stroke="#141E12" stroke-width="0.75"/>
<path fill-rule="evenodd" clip-rule="evenodd" d="M7.5 23.3654C7.5 23.173 7.65593 23.0171 7.84838 23.0171H75.5527C75.7447 23.0171 75.9007 23.173 75.9007 23.3654C75.9007 23.5578 75.7447 23.7138 75.5527 23.7138H7.84838C7.65593 23.7138 7.5 23.5578 7.5 23.3654Z" stroke="#141E12" stroke-width="0.75"/>
<path d="M27.1325 36.5485C29.034 36.5485 30.5756 35.007 30.5756 33.1055C30.5756 31.2039 29.034 29.6624 27.1325 29.6624C25.2309 29.6624 23.6895 31.2039 23.6895 33.1055C23.6895 35.007 25.2309 36.5485 27.1325 36.5485Z" fill="#141E12"/>
<path d="M39.6909 36.5485C41.5926 36.5485 43.134 35.007 43.134 33.1055C43.134 31.2039 41.5926 29.6624 39.6909 29.6624C37.7894 29.6624 36.2479 31.2039 36.2479 33.1055C36.2479 35.007 37.7894 36.5485 39.6909 36.5485Z" fill="#99D52A"/>
<path d="M296.782 405.954C288.446 398.25 302.972 371.41 318.191 378.68C325.333 382.092 347.738 390.674 346.278 393.989C344.818 397.305 332.506 412.524 322.054 414.776C308.36 417.725 296.782 405.954 296.782 405.954Z" stroke="#141E12" stroke-width="0.75"/>
</svg>
