<svg width="44" height="44" viewBox="0 0 44 44" fill="none" xmlns="http://www.w3.org/2000/svg">
<path d="M11.6467 39.5183L7.78149 32.8236L13.4539 23.0256L17.0585 29.2694L38.3371 29.258L32.2992 39.6108L11.6467 39.5183Z" fill="#99D52A"/>
<path d="M42.1367 22.6102L38.2715 29.3048L26.95 29.2915L30.5549 23.0479L19.9058 4.62573L31.8905 4.67832L42.1367 22.6102Z" fill="#D6409F"/>
<path d="M12.2423 4.59009H19.9727L25.6218 14.4016L18.4121 14.4013L7.78282 32.8349L1.83594 22.4295L12.2423 4.59009Z" fill="#F76808"/>
<path fill-rule="evenodd" clip-rule="evenodd" d="M20.9153 3.03999L20.8922 3H11.3291L0 22.4214L7.77686 36.0287L7.7864 36.0122L10.7264 41.1044L33.2103 41.2049L41.1062 27.6662H41.0537L43.9705 22.6142L32.8156 3.0922L20.9153 3.03999ZM28.3129 15.9917H28.3725L22.751 6.22838L30.9654 6.2644L40.3029 22.606L37.3803 27.6684L29.721 27.6724L32.3915 23.0473L28.3129 15.9917ZM18.9678 6.18024L22.8009 12.8113L17.4937 12.8112L8.40775 28.5681L7.78797 29.6388L3.67236 22.4376L13.1558 6.18024H18.9678ZM15.2825 23.0123L19.3309 15.9915L24.6395 15.9917L28.7186 23.0482L26.0475 27.6744L17.9765 27.6788L15.2825 23.0123ZM9.62137 32.8299L11.1616 30.1589L13.452 26.2026L16.1407 30.8601L24.2106 30.8557L24.1975 30.8783L35.5435 30.8917L31.3882 38.0165L12.5672 37.9323L9.62137 32.8299Z" fill="#0B0911"/>
</svg>
